<?xml version='1.0' ?><svg xmlns='http://www.w3.org/2000/svg' xmlns:xlink='http://www.w3.org/1999/xlink' version='1.1'><defs></defs><g transform="matrix(1,0,0,1,-20,-145)" ><g><path     d="M85 233 L 89 240 100 269 112 297 127 329 134 342 137 348 137 349"  stroke="#E4141B"  stroke-width="2"  stroke-linecap="round"  stroke-linejoin="round"  fill="none" ></path><path     d="M40 243 L 52 238 101 214 142 195 178 178 195 171 206 167 208 166 209 166"  stroke="#E4141B"  stroke-width="2"  stroke-linecap="round"  stroke-linejoin="round"  fill="none" ></path><path     d="M42 274 L 46 266 54 253 82 212 101 190 117 176 135 169 145 167 163 167 172 169 179 173 185 177 189 180 193 187 200 206 203 221 203 244 201 266 197 280 179 322 162 355 149 377 137 397 115 415 101 421 88 425 70 427 61 427 46 420 37 408 30 389 27 362 27 340 35 298 42 273 53 249 66 227 69 222 73 220 75 220 76 220 75 227 69 252 66 264 65 274 65 276 67 278 74 278 84 278 99 276 119 275 126 275 129 275 130 275 128 277 121 291 111 311 100 334 94 344 92 348 91 348 91 346 91 343 91 314 90 288 88 269 87 246 86 233 82 215 78 197 74 180 70 171 69 171 68 171 68 173 69 175 75 189 81 202 89 218 107 244 122 261 134 279 150 305 156 315 163 322 165 323 165 324 164 322 163 321 163 320 162 317 162 313 159 301 158 298 158 295 158 291 158 290 159 290 160 289 163 288 166 287 168 287 170 287 171 288 175 292 182 299 186 303 187 305 189 307 191 307 192 306 192 305 192 302 191 298 191 297 191 292 191 280 192 267 194 256 197 252 198 251 199 251 199 252 200 254 200 256 200 257 200 258 199 258 198 258 197 258 195 258 193 258 192 258 192 259 192 260 192 261 193 262 194 266 196 275 198 281 199 282 200 283 201 283 202 282 202 281 202 280 202 277 202 275 202 274 200 266 200 258 200 252 200 250 200 249 200 250 200 252 201 254 201 255 205 260 211 266 220 271 224 274 226 274 227 275 228 275 228 274 228 272 227 269 225 266 223 264 221 257 213 237 207 224 200 213 196 206 192 200 183 186 179 178 177 173 176 173 179 177 181 181 189 194 199 212 218 245 231 263 240 278 247 287 250 291 252 293 251 292 251 291 250 289 248 285 247 284 244 275 242 270 240 265 238 259 238 258 238 257 237 253 237 248 237 244 237 243 237 242 238 241 239 241 240 242 241 245 241 248 241 251 240 251 240 252 239 253 238 253 237 253 236 253 237 253 239 253 241 253 254 260 268 264 283 267 286 267 288 267 291 266 291 263 291 261 289 256 286 252 281 243 275 233 267 218 259 205 254 201 249 194 246 188 240 177 236 168 236 167 238 170 241 176 243 181 247 190 258 207 265 215 278 227 287 237 293 244 297 248 298 248 298 246 298 242 298 238 298 236 298 233 298 231 298 222 298 218 298 214 298 212 298 211 299 211 301 214 302 218 304 220 308 224 311 227 317 231 321 233 323 233 325 234 326 234 329 233 329 232 331 229 331 226 331 224 331 223 331 221 331 220 331 221 330 223"  stroke="#E4141B"  stroke-width="2"  stroke-linecap="round"  stroke-linejoin="round"  fill="none" ></path><path     d="M293 204 "  stroke="#E4141B"  stroke-width="2"  stroke-linecap="round"  stroke-linejoin="round"  fill="none" ></path><path     d="M293 204 L 288 206 281 210 263 219 239 231 227 237 221 242 216 245 214 245 212 245 206 245 194 245 187 245 174 246 166 247 159 250 150 254 147 256 144 257 142 259 141 260 140 262 138 264 137 264 136 266 131 268 114 278 98 287 82 294 58 303 43 309 32 313 23 316 21 316 21 317 22 317 25 317"  stroke="#E4141B"  stroke-width="2"  stroke-linecap="round"  stroke-linejoin="round"  fill="none" ></path><path     d="M142 403 L 154 392 174 373 228 328 318 266 383 225 434 190 475 162 493 152 501 148 504 146"  stroke="#E4141B"  stroke-width="2"  stroke-linecap="round"  stroke-linejoin="round"  fill="none" ></path></g></g></svg>